<?xml version="1.0" encoding="utf-8"?>
<!-- Generator: Adobe Illustrator 26.2.1, SVG Export Plug-In . SVG Version: 6.00 Build 0)  -->
<svg version="1.1" id="Calque_1" xmlns="http://www.w3.org/2000/svg" xmlns:xlink="http://www.w3.org/1999/xlink" x="0px" y="0px"
	 viewBox="0 0 600 600" style="enable-background:new 0 0 600 600;" xml:space="preserve">
<style type="text/css">
	.st0{fill:#CCC0AE;}
	.st1{fill:#E5DBCF;}
	.st2{opacity:0.5;fill:#CCC0AE;enable-background:new    ;}
	.st3{opacity:0.5;fill:#E5DBCF;enable-background:new    ;}
	.st4{fill:none;}
</style>
<rect class="st0" width="20" height="600"/>
<rect x="20" class="st1" width="20" height="600"/>
<rect x="40" class="st0" width="20" height="600"/>
<rect x="60" class="st1" width="20" height="600"/>
<rect x="80" class="st0" width="20" height="600"/>
<rect x="100" class="st1" width="20" height="600"/>
<rect x="120" class="st0" width="20" height="600"/>
<rect x="140" class="st1" width="20" height="600"/>
<rect x="160" class="st0" width="20" height="600"/>
<rect x="180" class="st1" width="20" height="600"/>
<rect x="200" class="st0" width="20" height="600"/>
<rect x="220" class="st1" width="20" height="600"/>
<rect x="240" class="st0" width="20" height="600"/>
<rect x="260" class="st1" width="20" height="600"/>
<rect x="280" class="st0" width="20" height="600"/>
<rect x="300" class="st1" width="20" height="600"/>
<rect x="320" class="st0" width="20" height="600"/>
<rect x="340" class="st1" width="20" height="600"/>
<rect x="360" class="st0" width="20" height="600"/>
<rect x="380" class="st1" width="20" height="600"/>
<rect x="400" class="st0" width="20" height="600"/>
<rect x="420" class="st1" width="20" height="600"/>
<rect x="440" class="st0" width="20" height="600"/>
<rect x="460" class="st1" width="20" height="600"/>
<rect x="480" class="st0" width="20" height="600"/>
<rect x="500" class="st1" width="20" height="600"/>
<rect x="520" class="st0" width="20" height="600"/>
<rect x="540" class="st1" width="20" height="600"/>
<rect x="560" class="st0" width="20" height="600"/>
<rect x="580" class="st1" width="20" height="600"/>
<rect class="st2" width="600" height="20"/>
<rect y="20" class="st3" width="600" height="20"/>
<rect y="40" class="st2" width="600" height="20"/>
<rect y="60" class="st3" width="600" height="20"/>
<rect y="80" class="st2" width="600" height="20"/>
<rect y="100" class="st3" width="600" height="20"/>
<rect y="120" class="st2" width="600" height="20"/>
<rect y="140" class="st3" width="600" height="20"/>
<rect y="160" class="st2" width="600" height="20"/>
<rect y="180" class="st3" width="600" height="20"/>
<rect y="200" class="st2" width="600" height="20"/>
<rect y="220" class="st3" width="600" height="20"/>
<rect y="240" class="st2" width="600" height="20"/>
<rect y="260" class="st3" width="600" height="20"/>
<rect y="280" class="st2" width="600" height="20"/>
<rect y="300" class="st3" width="600" height="20"/>
<rect y="320" class="st2" width="600" height="20"/>
<rect y="340" class="st3" width="600" height="20"/>
<rect y="360" class="st2" width="600" height="20"/>
<rect y="380" class="st3" width="600" height="20"/>
<rect y="400" class="st2" width="600" height="20"/>
<rect y="420" class="st3" width="600" height="20"/>
<rect y="440" class="st2" width="600" height="20"/>
<rect y="460" class="st3" width="600" height="20"/>
<rect y="480" class="st2" width="600" height="20"/>
<rect y="500" class="st3" width="600" height="20"/>
<rect y="520" class="st2" width="600" height="20"/>
<rect y="540" class="st3" width="600" height="20"/>
<rect y="560" class="st2" width="600" height="20"/>
<rect y="580" class="st3" width="600" height="20"/>
<line class="st4" x1="300" y1="-31.1" x2="300" y2="627.7"/>
<line class="st4" x1="-29.4" y1="300" x2="629.4" y2="300"/>
</svg>
